<svg width="100" height="100" viewBox="0 0 100 100" fill="none" xmlns="http://www.w3.org/2000/svg">
<path d="M82.8125 31.25H12.5C12.0856 31.25 11.6882 31.0854 11.3952 30.7924C11.1021 30.4994 10.9375 30.1019 10.9375 29.6875V26.5625C10.9351 26.1548 11.0921 25.7623 11.375 25.4688L15.9375 20.7813C16.0841 20.6318 16.2592 20.5132 16.4524 20.4327C16.6457 20.3522 16.8532 20.3113 17.0625 20.3125H73.7032C73.953 20.3115 74.1995 20.3705 74.4219 20.4844L83.5313 25.1719C83.786 25.3039 83.9995 25.5035 84.1484 25.7488C84.2972 25.9941 84.3756 26.2756 84.375 26.5625V29.6875C84.375 30.1019 84.2104 30.4994 83.9174 30.7924C83.6244 31.0854 83.2269 31.25 82.8125 31.25ZM14.0625 28.125H81.25V27.5157L73.3282 23.4375H17.7188L14.0625 27.2032V28.125Z" fill="#FFB400"/>
<path d="M32.6875 23.4375H23.4375C23.0231 23.4375 22.6257 23.2729 22.3326 22.9799C22.0396 22.6868 21.875 22.2894 21.875 21.875V12.5C21.875 12.0856 22.0396 11.6882 22.3326 11.3952C22.6257 11.1021 23.0231 10.9375 23.4375 10.9375H26.5625C26.8225 10.9363 27.0787 10.9999 27.3079 11.1227C27.5371 11.2455 27.732 11.4235 27.875 11.6406L34 21.0156C34.1371 21.2532 34.2093 21.5226 34.2093 21.7969C34.2093 22.0712 34.1371 22.3406 34 22.5781C33.8764 22.8244 33.6899 23.0336 33.4594 23.1845C33.2289 23.3354 32.9626 23.4227 32.6875 23.4375ZM25 20.3125H29.7969L25.7187 14.0625H25V20.3125ZM32.8125 81.25H23.4375C23.0231 81.25 22.6257 81.0854 22.3326 80.7924C22.0396 80.4994 21.875 80.1019 21.875 79.6875V29.6875C21.875 29.2731 22.0396 28.8757 22.3326 28.5827C22.6257 28.2896 23.0231 28.125 23.4375 28.125H32.8125C33.2269 28.125 33.6243 28.2896 33.9174 28.5827C34.2104 28.8757 34.375 29.2731 34.375 29.6875V79.6875C34.375 80.1019 34.2104 80.4994 33.9174 80.7924C33.6243 81.0854 33.2269 81.25 32.8125 81.25ZM25 78.125H31.25V31.25H25V78.125ZM87.5 89.0625H50C49.5856 89.0625 49.1882 88.8979 48.8951 88.6049C48.6021 88.3119 48.4375 87.9144 48.4375 87.5V67.1875C48.4375 66.7731 48.6021 66.3757 48.8951 66.0827C49.1882 65.7896 49.5856 65.625 50 65.625H67.1875V57.8125C67.1875 57.3981 67.3521 57.0007 67.6451 56.7077C67.9382 56.4146 68.3356 56.25 68.75 56.25H87.5C87.9144 56.25 88.3118 56.4146 88.6049 56.7077C88.8979 57.0007 89.0625 57.3981 89.0625 57.8125V87.5C89.0625 87.9144 88.8979 88.3119 88.6049 88.6049C88.3118 88.8979 87.9144 89.0625 87.5 89.0625ZM51.5625 85.9375H85.9375V59.375H70.3125V67.1875C70.3125 67.6019 70.1479 67.9994 69.8549 68.2924C69.5618 68.5854 69.1644 68.75 68.75 68.75H51.5625V85.9375Z" fill="#FFB400"/>
<path d="M53.125 68.75C52.7106 68.75 52.3132 68.5854 52.0201 68.2924C51.7271 67.9993 51.5625 67.6019 51.5625 67.1875V53.125C51.5625 52.7106 51.7271 52.3132 52.0201 52.0201C52.3132 51.7271 52.7106 51.5625 53.125 51.5625C53.5394 51.5625 53.9368 51.7271 54.2299 52.0201C54.5229 52.3132 54.6875 52.7106 54.6875 53.125V67.1875C54.6875 67.6019 54.5229 67.9993 54.2299 68.2924C53.9368 68.5854 53.5394 68.75 53.125 68.75ZM68.75 68.75C68.3356 68.75 67.9382 68.5854 67.6451 68.2924C67.3521 67.9993 67.1875 67.6019 67.1875 67.1875V45.3125C67.1875 44.8981 67.3521 44.5007 67.6451 44.2076C67.9382 43.9146 68.3356 43.75 68.75 43.75C69.1644 43.75 69.5618 43.9146 69.8549 44.2076C70.1479 44.5007 70.3125 44.8981 70.3125 45.3125V67.1875C70.3125 67.6019 70.1479 67.9993 69.8549 68.2924C69.5618 68.5854 69.1644 68.75 68.75 68.75ZM84.375 59.375C83.9606 59.375 83.5632 59.2104 83.2701 58.9174C82.9771 58.6243 82.8125 58.2269 82.8125 57.8125V42.1875C82.8125 41.7731 82.9771 41.3757 83.2701 41.0826C83.5632 40.7896 83.9606 40.625 84.375 40.625C84.7894 40.625 85.1868 40.7896 85.4799 41.0826C85.7729 41.3757 85.9375 41.7731 85.9375 42.1875V57.8125C85.9375 58.2269 85.7729 58.6243 85.4799 58.9174C85.1868 59.2104 84.7894 59.375 84.375 59.375Z" fill="#FFB400"/>
<path d="M68.75 62.5H53.125C52.7106 62.5 52.3132 62.3354 52.0201 62.0424C51.7271 61.7493 51.5625 61.3519 51.5625 60.9375C51.5625 60.5231 51.7271 60.1257 52.0201 59.8326C52.3132 59.5396 52.7106 59.375 53.125 59.375H68.75C69.1644 59.375 69.5618 59.5396 69.8549 59.8326C70.1479 60.1257 70.3125 60.5231 70.3125 60.9375C70.3125 61.3519 70.1479 61.7493 69.8549 62.0424C69.5618 62.3354 69.1644 62.5 68.75 62.5ZM84.375 53.125H68.75C68.3356 53.125 67.9382 52.9604 67.6451 52.6674C67.3521 52.3743 67.1875 51.9769 67.1875 51.5625C67.1875 51.1481 67.3521 50.7507 67.6451 50.4576C67.9382 50.1646 68.3356 50 68.75 50H84.375C84.7894 50 85.1868 50.1646 85.4799 50.4576C85.7729 50.7507 85.9375 51.1481 85.9375 51.5625C85.9375 51.9769 85.7729 52.3743 85.4799 52.6674C85.1868 52.9604 84.7894 53.125 84.375 53.125Z" fill="#FFB400"/>
<path d="M60.9375 68.75C60.5231 68.75 60.1257 68.5854 59.8326 68.2924C59.5396 67.9993 59.375 67.6019 59.375 67.1875V56.25C59.375 55.8356 59.5396 55.4382 59.8326 55.1451C60.1257 54.8521 60.5231 54.6875 60.9375 54.6875C61.3519 54.6875 61.7493 54.8521 62.0424 55.1451C62.3354 55.4382 62.5 55.8356 62.5 56.25V67.1875C62.5 67.6019 62.3354 67.9993 62.0424 68.2924C61.7493 68.5854 61.3519 68.75 60.9375 68.75ZM76.5625 59.375C76.1481 59.375 75.7507 59.2104 75.4576 58.9174C75.1646 58.6243 75 58.2269 75 57.8125V46.875C75 46.4606 75.1646 46.0632 75.4576 45.7701C75.7507 45.4771 76.1481 45.3125 76.5625 45.3125C76.9769 45.3125 77.3743 45.4771 77.6674 45.7701C77.9604 46.0632 78.125 46.4606 78.125 46.875V57.8125C78.125 58.2269 77.9604 58.6243 77.6674 58.9174C77.3743 59.2104 76.9769 59.375 76.5625 59.375ZM62.5 50H40.625C40.2106 50 39.8132 49.8354 39.5201 49.5424C39.2271 49.2493 39.0625 48.8519 39.0625 48.4375V42.1875C39.0625 41.7731 39.2271 41.3757 39.5201 41.0826C39.8132 40.7896 40.2106 40.625 40.625 40.625H62.5C62.9144 40.625 63.3118 40.7896 63.6049 41.0826C63.8979 41.3757 64.0625 41.7731 64.0625 42.1875V48.4375C64.0625 48.8519 63.8979 49.2493 63.6049 49.5424C63.3118 49.8354 62.9144 50 62.5 50ZM42.1875 46.875H60.9375V43.75H42.1875V46.875Z" fill="#FFB400"/>
<path d="M51.5625 43.75C51.1481 43.75 50.7507 43.5854 50.4576 43.2924C50.1646 42.9993 50 42.6019 50 42.1875V29.6875C50 29.2731 50.1646 28.8757 50.4576 28.5826C50.7507 28.2896 51.1481 28.125 51.5625 28.125C51.9769 28.125 52.3743 28.2896 52.6674 28.5826C52.9604 28.8757 53.125 29.2731 53.125 29.6875V42.1875C53.125 42.6019 52.9604 42.9993 52.6674 43.2924C52.3743 43.5854 51.9769 43.75 51.5625 43.75ZM37.5 89.0625H18.75C18.3356 89.0625 17.9382 88.8979 17.6451 88.6049C17.3521 88.3118 17.1875 87.9144 17.1875 87.5V79.6875C17.1875 79.2731 17.3521 78.8757 17.6451 78.5826C17.9382 78.2896 18.3356 78.125 18.75 78.125H37.5C37.9144 78.125 38.3118 78.2896 38.6049 78.5826C38.8979 78.8757 39.0625 79.2731 39.0625 79.6875V87.5C39.0625 87.9144 38.8979 88.3118 38.6049 88.6049C38.3118 88.8979 37.9144 89.0625 37.5 89.0625ZM20.3125 85.9375H35.9375V81.25H20.3125V85.9375Z" fill="#FFB400"/>
<path d="M23.4375 79.6875C23.2319 79.6887 23.028 79.6493 22.8377 79.5716C22.6473 79.4938 22.4742 79.3792 22.3282 79.2344C22.1817 79.0892 22.0655 78.9164 21.9861 78.7259C21.9068 78.5355 21.866 78.3313 21.866 78.125C21.866 77.9188 21.9068 77.7146 21.9861 77.5242C22.0655 77.3337 22.1817 77.1609 22.3282 77.0157L31.7032 67.6407C31.9974 67.3464 32.3964 67.1812 32.8125 67.1812C33.2286 67.1812 33.6277 67.3464 33.9219 67.6407C34.2161 67.9349 34.3814 68.334 34.3814 68.75C34.3814 69.1661 34.2161 69.5652 33.9219 69.8594L24.5469 79.2344C24.4009 79.3792 24.2278 79.4938 24.0374 79.5716C23.847 79.6493 23.6432 79.6887 23.4375 79.6875Z" fill="#FFB400"/>
<path d="M32.8125 70.3125C32.6069 70.3137 32.4031 70.2743 32.2127 70.1966C32.0223 70.1188 31.8492 70.0042 31.7032 69.8594L22.3282 60.4844C22.0339 60.1902 21.8687 59.7911 21.8687 59.375C21.8687 58.959 22.0339 58.5599 22.3282 58.2657C22.6224 57.9714 23.0214 57.8062 23.4375 57.8062C23.8536 57.8062 24.2527 57.9714 24.5469 58.2657L33.9219 67.6407C34.0684 67.7859 34.1846 67.9587 34.2639 68.1492C34.3433 68.3396 34.3841 68.5438 34.3841 68.75C34.3841 68.9563 34.3433 69.1605 34.2639 69.3509C34.1846 69.5414 34.0684 69.7142 33.9219 69.8594C33.7759 70.0042 33.6028 70.1188 33.4124 70.1966C33.222 70.2743 33.0182 70.3137 32.8125 70.3125Z" fill="#FFB400"/>
<path d="M23.4375 60.9375C23.2319 60.9387 23.028 60.8993 22.8377 60.8216C22.6473 60.7438 22.4742 60.6292 22.3282 60.4844C22.1817 60.3392 22.0655 60.1663 21.9861 59.9759C21.9068 59.7855 21.866 59.5813 21.866 59.375C21.866 59.1688 21.9068 58.9646 21.9861 58.7741C22.0655 58.5837 22.1817 58.4109 22.3282 58.2657L31.7032 48.8907C31.9974 48.5964 32.3964 48.4312 32.8125 48.4312C33.2286 48.4312 33.6277 48.5964 33.9219 48.8907C34.2161 49.1849 34.3814 49.5839 34.3814 50C34.3814 50.4161 34.2161 50.8152 33.9219 51.1094L24.5469 60.4844C24.4009 60.6292 24.2278 60.7438 24.0374 60.8216C23.847 60.8993 23.6432 60.9387 23.4375 60.9375ZM23.4375 42.1875C23.2319 42.1887 23.028 42.1493 22.8377 42.0716C22.6473 41.9938 22.4742 41.8792 22.3282 41.7344C22.1817 41.5892 22.0655 41.4164 21.9861 41.2259C21.9068 41.0355 21.866 40.8313 21.866 40.625C21.866 40.4188 21.9068 40.2145 21.9861 40.0241C22.0655 39.8337 22.1817 39.6609 22.3282 39.5157L31.7032 30.1407C31.9974 29.8464 32.3964 29.6812 32.8125 29.6812C33.2286 29.6812 33.6277 29.8464 33.9219 30.1407C34.2161 30.4349 34.3814 30.8339 34.3814 31.25C34.3814 31.6661 34.2161 32.0652 33.9219 32.3594L24.5469 41.7344C24.4009 41.8792 24.2278 41.9938 24.0374 42.0716C23.847 42.1493 23.6432 42.1887 23.4375 42.1875Z" fill="#FFB400"/>
<path d="M32.8125 51.5625C32.6069 51.5637 32.4031 51.5243 32.2127 51.4466C32.0223 51.3688 31.8492 51.2542 31.7032 51.1094L22.3282 41.7344C22.0339 41.4402 21.8687 41.0411 21.8687 40.625C21.8687 40.2089 22.0339 39.8099 22.3282 39.5157C22.6224 39.2214 23.0214 39.0562 23.4375 39.0562C23.8536 39.0562 24.2527 39.2214 24.5469 39.5157L33.9219 48.8907C34.0684 49.0359 34.1846 49.2087 34.2639 49.3991C34.3433 49.5895 34.3841 49.7938 34.3841 50C34.3841 50.2063 34.3433 50.4105 34.2639 50.6009C34.1846 50.7913 34.0684 50.9642 33.9219 51.1094C33.7759 51.2542 33.6028 51.3688 33.4124 51.4466C33.222 51.5243 33.0182 51.5637 32.8125 51.5625Z" fill="#FFB400"/>
</svg>