<svg width="56" height="55" viewBox="0 0 56 55" fill="none" xmlns="http://www.w3.org/2000/svg">
<path fill-rule="evenodd" clip-rule="evenodd" d="M27.9921 45.6408C30.4778 44.4166 43.5996 37.3779 43.5996 25.2083C43.5996 16.3487 36.4311 9.16663 27.5884 9.16663C18.7456 9.16663 11.5771 16.3487 11.5771 25.2083C11.5771 37.3779 24.6989 44.4166 27.1846 45.6408C27.4406 45.7668 27.7361 45.7668 27.9921 45.6408ZM27.5884 32.0833C31.3781 32.0833 34.4503 29.0052 34.4503 25.2083C34.4503 21.4113 31.3781 18.3333 27.5884 18.3333C23.7986 18.3333 20.7264 21.4113 20.7264 25.2083C20.7264 29.0052 23.7986 32.0833 27.5884 32.0833Z" fill="#CC0000"/>
<path d="M27.9921 45.6408L27.727 45.1025V45.1025L27.9921 45.6408ZM27.1846 45.6408L27.4497 45.1025V45.1025L27.1846 45.6408ZM42.9996 25.2083C42.9996 31.0634 39.8442 35.7192 36.3133 39.0954C32.785 42.4692 28.9442 44.5031 27.727 45.1025L28.2572 46.179C29.5257 45.5543 33.4887 43.4567 37.1426 39.9627C40.7941 36.4711 44.1996 31.5228 44.1996 25.2083H42.9996ZM27.5884 9.76663C36.0987 9.76663 42.9996 16.679 42.9996 25.2083H44.1996C44.1996 16.0184 36.7636 8.56663 27.5884 8.56663V9.76663ZM12.1771 25.2083C12.1771 16.679 19.0781 9.76663 27.5884 9.76663V8.56663C18.4132 8.56663 10.9771 16.0184 10.9771 25.2083H12.1771ZM27.4497 45.1025C26.2326 44.5031 22.3917 42.4692 18.8634 39.0954C15.3326 35.7192 12.1771 31.0634 12.1771 25.2083H10.9771C10.9771 31.5228 14.3826 36.4711 18.0341 39.9627C21.6881 43.4567 25.651 45.5543 26.9195 46.179L27.4497 45.1025ZM27.727 45.1025C27.6382 45.1463 27.5386 45.1463 27.4497 45.1025L26.9195 46.179C27.3427 46.3874 27.834 46.3874 28.2572 46.179L27.727 45.1025ZM33.8503 25.2083C33.8503 28.675 31.0457 31.4833 27.5884 31.4833V32.6833C31.7106 32.6833 35.0503 29.3355 35.0503 25.2083H33.8503ZM27.5884 18.9333C31.0457 18.9333 33.8503 21.7416 33.8503 25.2083H35.0503C35.0503 21.081 31.7106 17.7333 27.5884 17.7333V18.9333ZM21.3264 25.2083C21.3264 21.7416 24.1311 18.9333 27.5884 18.9333V17.7333C23.4662 17.7333 20.1264 21.081 20.1264 25.2083H21.3264ZM27.5884 31.4833C24.1311 31.4833 21.3264 28.675 21.3264 25.2083H20.1264C20.1264 29.3355 23.4662 32.6833 27.5884 32.6833V31.4833Z" fill="#222222"/>
</svg>
